<?xml version="1.0" encoding="UTF-8" standalone="no"?>
<svg
   
   
   
   
   xmlns="http://www.w3.org/2000/svg"
   
   
   viewBox="0 0 38 38"
   width="114"
   height="114"
   version="1.1"
   id="svg4"
   
   >
  <metadata
     id="metadata10">
    
  </metadata>
  <defs
     id="defs8" />
  
  <path
     d="M 37.2,17.1 20.9,0.8 C 20.4,0.3 19.7,0 19,0 c 0,0 0,0 0,0 -0.7,0 -1.4,0.3 -1.9,0.8 l -3.5,3.5 4.1,4.1 c 0.4,-0.2 0.8,-0.3 1.3,-0.3 1.7,0 3,1.3 3,3 0,0.5 -0.1,0.9 -0.3,1.3 l 4,4 c 0.4,-0.2 0.8,-0.3 1.3,-0.3 1.7,0 3,1.3 3,3 0,1.7 -1.3,3 -3,3 -1.7,0 -3,-1.3 -3,-3 0,-0.5 0.1,-0.9 0.3,-1.3 l -4,-4 c -0.1,0 -0.2,0.1 -0.3,0.1 v 10.4 c 1.2,0.4 2,1.5 2,2.8 0,1.7 -1.3,3 -3,3 -1.7,0 -3,-1.3 -3,-3 0,-1.3 0.8,-2.4 2,-2.8 V 13.8 C 16.8,13.4 16,12.3 16,11 16,10.5 16.1,10.1 16.3,9.7 L 12.2,5.6 0.8,17.1 C 0.3,17.6 0,18.3 0,19 c 0,0.7 0.3,1.4 0.8,1.9 l 16.3,16.3 c 0,0 0,0 0,0 0.5,0.5 1.2,0.8 1.9,0.8 0.7,0 1.4,-0.3 1.9,-0.8 L 37.2,20.9 C 37.7,20.4 38,19.7 38,19 38,18.3 37.7,17.6 37.2,17.1 Z"
     id="path2"
     
     style="fill:#f4511e" />
</svg>
