<?xml version="1.0" encoding="UTF-8" standalone="no"?>
<svg
   xmlns="http://www.w3.org/2000/svg"
   height="2380.8494"
   viewBox="20.8 4.2 348.52013 372.93624"
   width="2118.9324"
   version="1.1"
   id="svg20"
   >
  <metadata
     id="metadata26">
  </metadata>
  <defs
     id="defs24" />
  <g
     id="g18"
     style="fill:#e535ab"
     transform="translate(-4.9399331,-9.7988986)">
    <path
       d="m 57.468,302.66 -14.376,-8.3 160.15,-277.38 14.376,8.3 z"
       id="path2"
        />
    <path
       d="m 39.8,272.2 h 320.3 v 16.6 H 39.8 Z"
       id="path4"
        />
    <path
       d="m 206.348,374.026 -160.21,-92.5 8.3,-14.376 160.21,92.5 z m 139.174,-241.079 -160.21,-92.5 8.3,-14.376 160.21,92.5 z"
       id="path6"
        />
    <path
       d="m 54.482,132.883 -8.3,-14.375 160.21,-92.5 8.3,14.375 z"
       id="path8"
        />
    <path
       d="m 342.568,302.663 -160.15,-277.38 14.376,-8.3 160.15,277.38 z M 52.5,107.5 h 16.6 v 185 H 52.5 Z"
       id="path10"
        />
    <path
       d="m 330.9,107.5 h 16.6 v 185 h -16.6 z"
       id="path12"
        />
    <path
       d="m 203.522,367 -7.25,-12.558 139.34,-80.45 7.25,12.557 z"
       id="path14"
        />
    <path
       d="m 369.5,297.9 c -9.6,16.7 -31,22.4 -47.7,12.8 -16.7,-9.6 -22.4,-31 -12.8,-47.7 9.6,-16.7 31,-22.4 47.7,-12.8 16.8,9.7 22.5,31 12.8,47.7 M 90.9,137 c -9.6,16.7 -31,22.4 -47.7,12.8 -16.7,-9.6 -22.4,-31 -12.8,-47.7 9.6,-16.7 31,-22.4 47.7,-12.8 16.7,9.7 22.4,31 12.8,47.7 M 30.5,297.9 c -9.6,-16.7 -3.9,-38 12.8,-47.7 16.7,-9.6 38,-3.9 47.7,12.8 9.6,16.7 3.9,38 -12.8,47.7 -16.8,9.6 -38.1,3.9 -47.7,-12.8 M 309.1,137 c -9.6,-16.7 -3.9,-38 12.8,-47.7 16.7,-9.6 38,-3.9 47.7,12.8 9.6,16.7 3.9,38 -12.8,47.7 -16.7,9.6 -38.1,3.9 -47.7,-12.8 M 200,395.8 c -19.3,0 -34.9,-15.6 -34.9,-34.9 0,-19.3 15.6,-34.9 34.9,-34.9 19.3,0 34.9,15.6 34.9,34.9 0,19.2 -15.6,34.9 -34.9,34.9 M 200,74 c -19.3,0 -34.9,-15.6 -34.9,-34.9 0,-19.3 15.6,-34.9 34.9,-34.9 19.3,0 34.9,15.6 34.9,34.9 0,19.3 -15.6,34.9 -34.9,34.9"
       id="path16"
        />
  </g>
</svg>
