<?xml version="1.0" encoding="UTF-8" standalone="no"?>
<svg
   
   
   
   
   xmlns="http://www.w3.org/2000/svg"
   
   
   width="71.558403"
   height="64.647697"
   viewBox="0 0 71.558403 64.647697"
   version="1.1"
   id="svg10"
   
   style="fill:none"
   >
  <metadata
     id="metadata16">
    
  </metadata>
  <defs
     id="defs14" />
  
  <path
     d="m 0,32.207722 c 0,5.4302 5.276943,10.4994 13.596503,13.3567 -1.6613,8.4042 -0.2978,15.1778 4.2568,17.8173 4.6816,2.7128 11.6561,0.8349 18.2758,-4.9794 6.4526,5.5796 12.9742,7.7755 17.5245,5.1285 4.6771,-2.7206 6.0997,-9.9537 4.3924,-18.6202 8.6653,-2.8787 13.5124,-7.2013 13.5124,-12.7029 0,-5.3042 -5.2868,-9.8931 -13.4941,-12.7322 1.838,-9.0246 0.2806,-15.6339002 -4.4625,-18.3823202 -4.5728,-2.64965 -11.1701,-0.34020805 -17.7177,5.38554 -6.8116,-6.07742905 -13.3438,-7.93294 -18.0823,-5.17651 -4.5684,2.65718 -5.872,9.5539902 -4.2053,18.1136902 C 5.557863,22.232222 0,26.924722 0,32.207722 Z"
     id="path2"
     
     style="fill:#ffffff" />
  <path
     d="m 56.326003,22.294922 c -0.6592,-0.2281 -1.3423,-0.4438 -2.0457,-0.6478 0.1156,-0.4741 0.2217,-0.9421 0.316,-1.4021 1.5486,-7.5534 0.5361,-13.6384302 -2.9214,-15.6418902 -3.3152,-1.92105 -8.7371,0.08196 -14.213,4.87044 -0.5265,0.46045 -1.0546,0.9479502 -1.5824,1.4588502 -0.3517,-0.338 -0.7028,-0.6647 -1.053,-0.9771002 -5.7388,-5.1202 -11.4912,-7.2779 -14.9452,-5.26864 -3.3121,1.92662 -4.293,7.6471402 -2.899,14.8055402 0.1346,0.6914 0.2919,1.3975 0.4699,2.1154 -0.8142,0.2323 -1.6001,0.4798 -2.3521,0.7432 -6.7282,2.3571 -11.02512,6.0512 -11.02512,9.8829 0,3.9575 4.61275,7.9269 11.62072,10.3338 0.553,0.1899 1.1268,0.3695 1.7182,0.54 -0.1919,0.7765 -0.3589,1.5373 -0.4991,2.2794 -1.3291,7.0342 -0.2911,12.6196 3.0122,14.5341 3.412,1.9771 9.1383,-0.0552 14.7142,-4.9528 0.4407,-0.3871 0.883,-0.7977 1.3261,-1.228 0.5743,0.5557 1.1477,1.0816 1.718,1.5749 5.401,4.6702 10.7353,6.556 14.0356,4.6362 3.4086,-1.9828 4.5163,-7.9828 3.0782,-15.2828 -0.1099,-0.5576 -0.2377,-1.1271 -0.3813,-1.7068 0.4022,-0.1195 0.797,-0.2428 1.1819,-0.371 7.2854,-2.4255 12.0255,-6.3466 12.0255,-10.357 0,-3.8456 -4.4355,-7.5646 -11.2992,-9.9388 z"
     id="path4"
     
     style="fill:#47b4e4;fill-opacity:1" />
  <path
     d="m 54.745903,40.001222 c -0.3475,0.1156 -0.7041,0.2273 -1.0674,0.3357 -0.8043,-2.5585 -1.8897,-5.2791 -3.2181,-8.0899 1.2676,-2.7439 2.3111,-5.4297 3.0929,-7.9716 0.6501,0.189 1.2811,0.3884 1.8891,0.5988 5.8808,2.0343 9.468,5.042 9.468,7.3595 0,2.4686 -3.8741,5.6731 -10.1645,7.7675 z m -2.6101,5.197 c 0.6359,3.228 0.7268,6.1464 0.3055,8.4279 -0.3785,2.0501 -1.1396,3.4169 -2.0808,3.9643 -2.0027,1.1649 -6.2857,-0.3493 -10.9046,-4.3432 -0.5295,-0.4579 -1.0629,-0.9467 -1.5979,-1.4641 1.7906,-1.9679 3.5803,-4.2557 5.3269,-6.7964 3.0722,-0.274 5.9747,-0.7218 8.6069,-1.3332 0.1296,0.5255 0.2448,1.0408 0.344,1.5447 z m -26.3951,12.1909 c -1.9567,0.6944 -3.5152,0.7143 -4.4572,0.1685 -2.0046,-1.1618 -2.8379,-5.6463 -1.7012,-11.6619 0.1302,-0.689 0.2852,-1.3966 0.4638,-2.12 2.6033,0.5784 5.4845,0.9947 8.5641,1.2455 1.7584,2.4862 3.5998,4.7715 5.4554,6.7724 -0.4055,0.3933 -0.8093,0.7677 -1.2109,1.1205 -2.4656,2.1657 -4.9365,3.7022 -7.114,4.475 z m -9.167,-17.403 c -3.0988,-1.0642 -5.6579,-2.4474 -7.412,-3.9568 -1.57619,-1.3564 -2.37198,-2.703 -2.37198,-3.7956 0,-2.3253 3.44998,-5.2911 9.20398,-7.307 0.6982,-0.2446 1.4291,-0.4751 2.1875,-0.6916 0.7952,2.5993 1.8384,5.3169 3.0973,8.065 -1.2752,2.7889 -2.3332,5.5498 -3.1362,8.1795 -0.5407,-0.1561 -1.0646,-0.3205 -1.5686,-0.4935 z m 3.0729,-21.0178 c -1.1944,-6.1332 -0.4012,-10.7597802 1.5948,-11.9207502 2.1261,-1.23679 6.8274,0.52661 11.7824,4.9476502 0.3168,0.2825 0.6348,0.5783 0.9536,0.8843 -1.8464,1.9922 -3.6709,4.2603 -5.4137,6.7318 -2.9888,0.2784 -5.8498,0.7255 -8.4803,1.3243 -0.1654,-0.6685 -0.3119,-1.3252 -0.4368,-1.9673 z m 27.4127,6.8016 c -0.6289,-1.0914 -1.2744,-2.157 -1.9326,-3.1935 2.0277,0.2575 3.9704,0.5994 5.7948,1.0178 -0.5478,1.7639 -1.2304,3.6081 -2.034,5.4987 -0.5765,-1.0997 -1.1862,-2.2085 -1.8282,-3.323 z m -11.1789,-10.9408 c 1.2522,1.3631 2.5063,2.8851 3.7397,4.5364 -1.2429,-0.0589 -2.5013,-0.0896 -3.77,-0.0896 -1.2567,0 -2.5058,0.03 -3.741,0.0879 1.2346,-1.6359 2.4995,-3.1559 3.7713,-4.5347 z m -11.2504,10.9597 c -0.6282,1.0944 -1.2266,2.1972 -1.794,3.302 -0.7905,-1.884 -1.4669,-3.7366 -2.0194,-5.5254 1.8132,-0.4078 3.7468,-0.7411 5.7615,-0.9938 -0.6674,1.046 -1.3183,2.1195 -1.9481,3.2169 z m 2.0061,16.3016 c -2.0816,-0.2334 -4.0442,-0.5496 -5.8569,-0.9461 0.5613,-1.8208 1.2526,-3.7129 2.0599,-5.6375 0.5689,1.104 1.1696,2.2072 1.8016,3.3041 h 10e-5 c 0.6438,1.1175 1.3108,2.2121 1.9953,3.2795 z m 9.3194,7.7402 c -1.2867,-1.395 -2.5701,-2.9381 -3.8236,-4.598 1.2168,0.048 2.4574,0.0726 3.7182,0.0726 1.2953,0 2.5758,-0.0294 3.8362,-0.0857 -1.2375,1.6897 -2.487,3.2352 -3.7308,4.6111 z m 12.9579,-14.4219 c 0.8494,1.9454 1.5654,3.8277 2.134,5.6174 -1.8426,0.4224 -3.832,0.7626 -5.9281,1.0154 0.6597,-1.0505 1.3109,-2.1344 1.9508,-3.2493 0.6474,-1.1281 1.2621,-2.2578 1.8433,-3.3835 z m -4.1949,2.0206 c -0.9934,1.7308 -2.0133,3.383 -3.0487,4.9426 -1.8858,0.1355 -3.834,0.2053 -5.8197,0.2053 -1.9776,0 -3.9013,-0.0617 -5.7538,-0.1825 -1.0771,-1.5801 -2.1191,-3.2372 -3.1062,-4.9505 h 2e-4 c -0.9844,-1.7086 -1.8905,-3.4317 -2.7115,-5.145 0.8207,-1.7174 1.7244,-3.4424 2.7033,-5.1479 l -3e-4,3e-4 c 0.9815,-1.7101 2.0143,-3.3591 3.0815,-4.9293 1.89,-0.1436 3.8281,-0.2185 5.7867,-0.2185 h 10e-5 c 1.9675,0 3.908,0.0755 5.7975,0.2203 1.0508,1.5587 2.0767,3.2024 3.062,4.9127 0.9964,1.7296 1.9118,3.4431 2.7396,5.1236 -0.8253,1.7094 -1.7387,3.4402 -2.7307,5.1689 z m 5.6004,-30.4629102 c 2.1281,1.23315 2.9557,6.2064102 1.6186,12.7280102 -0.0853,0.4161 -0.1813,0.84 -0.2856,1.2695 -2.6366,-0.6113 -5.4996,-1.0662 -8.4972,-1.3487 -1.7462,-2.4987 -3.5557,-4.7703 -5.3721,-6.737 0.4884,-0.472 0.976,-0.9221 1.4616,-1.3469 4.6917,-4.1027502 9.0768,-5.7225902 11.0747,-4.5649102 z"
     id="path6"
     
     style="fill:#ffffff" />
  <path
     d="m 35.850103,26.531522 c 3.1341,0 5.6748,2.5529 5.6748,5.7022 0,3.1492 -2.5407,5.7022 -5.6748,5.7022 -3.1341,0 -5.6748,-2.553 -5.6748,-5.7022 0,-3.1493 2.5407,-5.7022 5.6748,-5.7022 z"
     id="path8"
     
     style="fill:#47b4e4;fill-opacity:1" />
</svg>
