<?xml version="1.0" encoding="UTF-8" standalone="no"?>
<svg
   
   
   
   
   xmlns="http://www.w3.org/2000/svg"
   
   
   viewBox="0 0 41.959691 39.996"
   width="125.87907"
   height="119.988"
   version="1.1"
   id="svg8"
   
   >
  <metadata
     id="metadata14">
    
  </metadata>
  <defs
     id="defs12" />
  
  <path
     d="m 19.979227,0 c -6.617,0 -12.0000004,7.27 -12.0000004,16.205 0,4.834 1.582,9.169 4.0780004,12.136 -0.048,0.213 -0.078,0.432 -0.078,0.659 0,1.657 1.343,3 3,3 1.657,0 3,-1.343 3,-3 0,-1.657 -1.343,-3 -3,-3 -0.315,0 -0.612,0.062 -0.897,0.152 -1.897,-2.421 -3.103,-5.977 -3.103,-9.947 0,-7.281 4.037,-13.205 9,-13.205 3.837,0 7.111,3.547 8.404,8.518 1.122,0.346 2.237,0.782 3.33,1.308 C 30.558227,5.508 25.738227,0 19.979227,0 Z"
     id="path2"
     
     style="fill:#7e57c2" />
  <path
     d="m 32.486227,16.084 c -3.947,-2.392 -8.374,-3.442 -12.182,-2.959 -0.55,-0.681 -1.382,-1.125 -2.325,-1.125 -1.657,0 -3,1.343 -3,3 0,1.657 1.343,3 3,3 1.272,0 2.353,-0.795 2.789,-1.912 3.118,-0.379 6.812,0.531 10.163,2.563 6.403,3.881 9.67,10.569 7.282,14.911 -0.827,1.504 -2.286,2.572 -4.218,3.09 -2.286,0.611 -5.007,0.394 -7.727,-0.528 -0.839,0.772 -1.749,1.498 -2.725,2.168 2.552,1.117 5.196,1.704 7.669,1.704 1.24,0 2.438,-0.147 3.559,-0.447 2.741,-0.733 4.841,-2.304 6.071,-4.542 3.153,-5.731 -0.596,-14.22 -8.356,-18.923 z"
     id="path4"
     
     style="fill:#7e57c2" />
  <path
     d="m 31.979227,24.992 c 0,-1.652 -1.343,-2.992 -3,-2.992 -1.657,0 -3,1.34 -3,2.992 0,0.669 0.228,1.281 0.6,1.779 -1.279,2.802 -3.744,5.567 -7.062,7.578 -3.865,2.344 -8.185,3.202 -11.5550004,2.302 -1.932,-0.518 -3.391,-1.586 -4.218,-3.09 -1.702,-3.094 -0.521,-7.376 2.61,-10.988 -0.323,-1.144 -0.562,-2.34 -0.706,-3.575 -5.07000001,4.797 -7.109,11.323 -4.532,16.009 1.23,2.238 3.33,3.809 6.071,4.542 1.121,0.3 2.318,0.447 3.5590004,0.447 3.346,0 7.007,-1.068 10.326,-3.08 3.836,-2.325 6.683,-5.577 8.209,-8.962 1.513,-0.153 2.698,-1.413 2.698,-2.962 z"
     id="path6"
     
     style="fill:#7e57c2" />
</svg>
