<?xml version="1.0" encoding="UTF-8" standalone="no"?>
<svg
   viewBox="0 0 34 38"
   width="102"
   height="114"
   version="1.1"
   id="svg10"
   xmlns="http://www.w3.org/2000/svg"
   >
  <metadata
     id="metadata16">
  </metadata>
  <defs
     id="defs14" />
  <path
     d="M 34,0 H 0 l 3,34 14,4 14,-4 z"
     id="path2"
     style="fill:#0277bd" />
  <path
     d="M 17,3 V 34.9 L 28.2,31.7 30.7,3 Z"
     id="path4"
     style="fill:#039be5" />
  <path
     d="M 26.1,8 H 17 v 4 h 4.9 l -0.3,4 H 17 v 4 h 4.4 l -0.3,4.5 -4.1,1.4 v 4.2 L 24.9,27.5 25.6,16 v 0 z"
     id="path6"
     style="fill:#ffffff" />
  <path
     d="m 17,8 v 4 H 8.1 L 7.8,8 Z m -4.6,8 0.2,4 H 17 v -4 z m 0.4,6 h -4 l 0.3,5.5 7.9,2.6 v -4.2 l -4.1,-1.4 z"
     id="path8"
     style="fill:#eeeeee" />
</svg>
