<?xml version="1.0" encoding="UTF-8" standalone="no"?>
<svg
   
   
   
   
   xmlns="http://www.w3.org/2000/svg"
   
   
   height="33.601555mm"
   viewBox="0 0 24.001027 33.601554"
   width="24.001028mm"
   version="1.1"
   id="svg34"
   
   >
  <metadata
     id="metadata40">
    
  </metadata>
  <defs
     id="defs38" />
  
  <path
     d="M -5.3500755,-0.5490035 H 29.349591 V 34.150663 H -5.3500755 Z"
     id="path2"
     style="fill:none;fill-opacity:1;stroke-width:0.11871969"
      />
  <g
     transform="matrix(0.4000185,0,0,0.4000185,-3.3201535e-6,0)"
     id="g32"
     style="fill:#ffffff">
    <path
       d="M 38.869,0 48.563,5.5746 10.387,27.5286 0.693,21.9539 Z"
       id="path4"
       style="fill:#0051cd;fill-opacity:1"
        />
    <path
       d="m 48.954,6.7451 -37.936,21.806 -0.0013,11.032 37.936,-21.806 z"
       id="path6"
       style="fill:#0051cd;fill-opacity:1"
        />
    <path
       d="M 33.698,28.276 11.097,41.267 11.0958,52.3 33.6968,39.309 Z"
       id="path8"
       style="fill:#0051cd;fill-opacity:1"
        />
    <path
       d="m 25.035,45.717 -13.99,8.0421 -0.0013,11.033 13.991,-8.0421 z"
       id="path10"
       style="fill:#0051cd;fill-opacity:1"
        />
    <path
       d="m 0.0037583,23.017 9.751,5.6047 -0.00375,11.035 -9.751,-5.6046 z"
       id="path12"
       style="fill:#0051cd;fill-opacity:1"
        />
    <path
       d="m 0.096543,35.657 9.6327,5.5367 -0.00376,11.035 -9.6327,-5.5366 z"
       id="path14"
       style="fill:#0051cd;fill-opacity:1"
        />
    <path
       d="m 0.092298,48.221 9.6359,5.5386 -0.00401,11.763 -9.6359,-5.5386 z"
       id="path16"
       style="fill:#0051cd;fill-opacity:1"
        />
    <path
       d="M 21.564,84 11.87,78.4254 49.613,56.7214 59.3069,62.296 Z"
       id="path18"
       style="fill:#0051cd;fill-opacity:1"
        />
    <path
       d="M 11.102,77.471 48.981,55.698 48.9822,44.666 11.1032,66.439 Z"
       id="path20"
       style="fill:#0051cd;fill-opacity:1"
        />
    <path
       d="M 26.3,55.974 48.901,42.983 48.9023,31.95 26.3013,44.941 Z"
       id="path22"
       style="fill:#0051cd;fill-opacity:1"
        />
    <path
       d="m 34.964,38.532 13.99,-8.0421 0.0012,-11.033 -13.99,8.0421 z"
       id="path24"
       style="fill:#0051cd;fill-opacity:1"
        />
    <path
       d="m 59.996,61.306 -9.7509,-5.6046 0.0037,-11.035 9.751,5.6046 z"
       id="path26"
       style="fill:#0051cd;fill-opacity:1"
        />
    <path
       d="m 59.904,48.595 -9.6327,-5.5367 0.0037,-11.035 9.6327,5.5366 z"
       id="path28"
       style="fill:#0051cd;fill-opacity:1"
        />
    <path
       d="m 59.908,36.031 -9.636,-5.5386 0.0039,-11.552 9.636,5.5385 z"
       id="path30"
       style="fill:#0051cd;fill-opacity:1"
        />
  </g>
</svg>
