<?xml version="1.0" encoding="UTF-8" standalone="no"?>
<svg
   xmlns:dc="http://purl.org/dc/elements/1.1/"
   xmlns:cc="http://creativecommons.org/ns#"
   xmlns:rdf="http://www.w3.org/1999/02/22-rdf-syntax-ns#"
   xmlns:svg="http://www.w3.org/2000/svg"
   xmlns="http://www.w3.org/2000/svg"
   xmlns:sodipodi="http://sodipodi.sourceforge.net/DTD/sodipodi-0.dtd"
   xmlns:inkscape="http://www.inkscape.org/namespaces/inkscape"
   viewBox="0 0 38 38"
   width="114"
   height="114"
   version="1.1"
   id="svg4"
   sodipodi:docname="Git.svg"
   inkscape:version="0.92.4 (5da689c313, 2019-01-14)">
  <metadata
     id="metadata10">
    <rdf:RDF>
      <cc:Work
         rdf:about="">
        <dc:format>image/svg+xml</dc:format>
        <dc:type
           rdf:resource="http://purl.org/dc/dcmitype/StillImage" />
      </cc:Work>
    </rdf:RDF>
  </metadata>
  <defs
     id="defs8" />
  <sodipodi:namedview
     pagecolor="#ffffff"
     bordercolor="#666666"
     borderopacity="1"
     objecttolerance="10"
     gridtolerance="10"
     guidetolerance="10"
     inkscape:pageopacity="0"
     inkscape:pageshadow="2"
     inkscape:window-width="640"
     inkscape:window-height="480"
     id="namedview6"
     showgrid="false"
     inkscape:zoom="1.6388889"
     inkscape:cx="57"
     inkscape:cy="57"
     inkscape:window-x="0"
     inkscape:window-y="0"
     inkscape:window-maximized="0"
     inkscape:current-layer="svg4" />
  <path
     d="M 37.2,17.1 20.9,0.8 C 20.4,0.3 19.7,0 19,0 c 0,0 0,0 0,0 -0.7,0 -1.4,0.3 -1.9,0.8 l -3.5,3.5 4.1,4.1 c 0.4,-0.2 0.8,-0.3 1.3,-0.3 1.7,0 3,1.3 3,3 0,0.5 -0.1,0.9 -0.3,1.3 l 4,4 c 0.4,-0.2 0.8,-0.3 1.3,-0.3 1.7,0 3,1.3 3,3 0,1.7 -1.3,3 -3,3 -1.7,0 -3,-1.3 -3,-3 0,-0.5 0.1,-0.9 0.3,-1.3 l -4,-4 c -0.1,0 -0.2,0.1 -0.3,0.1 v 10.4 c 1.2,0.4 2,1.5 2,2.8 0,1.7 -1.3,3 -3,3 -1.7,0 -3,-1.3 -3,-3 0,-1.3 0.8,-2.4 2,-2.8 V 13.8 C 16.8,13.4 16,12.3 16,11 16,10.5 16.1,10.1 16.3,9.7 L 12.2,5.6 0.8,17.1 C 0.3,17.6 0,18.3 0,19 c 0,0.7 0.3,1.4 0.8,1.9 l 16.3,16.3 c 0,0 0,0 0,0 0.5,0.5 1.2,0.8 1.9,0.8 0.7,0 1.4,-0.3 1.9,-0.8 L 37.2,20.9 C 37.7,20.4 38,19.7 38,19 38,18.3 37.7,17.6 37.2,17.1 Z"
     id="path2"
     inkscape:connector-curvature="0"
     style="fill:#f4511e" />
</svg>
