<?xml version="1.0" encoding="UTF-8" standalone="no"?>
<svg
   
   
   
   
   xmlns="http://www.w3.org/2000/svg"
   
   
   viewBox="0 0 25.354462 28.000038"
   version="1.1"
   id="svg8"
   
   width="25.354462"
   height="28.000038"
   >
  <metadata
     id="metadata14">
    
  </metadata>
  <defs
     id="defs12" />
  
  <title
     id="title2">file_type_jest_snapshot</title>
  <path
     d="m 23.766463,13.786 a 2.606,2.606 0 0 0 -2.606,-2.606 c -0.093,0 -0.184,0.005 -0.274,0.014 l 3.58,-10.557 H 9.2544626 l 3.5740004,10.548 c -0.052,0 -0.105,-0.005 -0.158,-0.005 a 2.607,2.607 0 0 0 -0.792,5.09 11.375,11.375 0 0 1 -2.0490004,2.579 10.443,10.443 0 0 1 -3.652,2.267 3.324,3.324 0 0 1 -1.665,-4.23 c 0.077,-0.18 0.155,-0.362 0.23,-0.544 a 2.608,2.608 0 1 0 -2.09,-0.4 20.08,20.08 0 0 0 -1.88900004,4.788 c -0.354,2.135 0,4.4 1.84500004,5.681 4.3,2.981 8.9690004,-1.848 13.8910004,-3.061 1.784,-0.44 3.742,-0.369 5.313,-1.28 a 4.443,4.443 0 0 0 2.179,-3.088 4.639,4.639 0 0 0 -0.831,-3.521 2.6,2.6 0 0 0 0.606,-1.671 z m -8.489,0.014 v -0.009 a 2.605,2.605 0 0 0 -1.256,-2.23 l 2.844,-5.761 2.85,5.814 a 2.6,2.6 0 0 0 -1.161,2.169 c 0,0.019 0,0.038 0,0.057 z"
     style="fill:#99425b"
     id="path4"
      />
  <path
     d="m 24.403463,13.786 a 3.248,3.248 0 0 0 -2.643,-3.186 L 25.354463,0 H 8.3664626 l 3.6000004,10.621 a 3.242,3.242 0 0 0 -1.005,5.919 10.852,10.852 0 0 1 -1.5680004,1.846 9.836,9.836 0 0 1 -3.16,2.03 2.657,2.657 0 0 1 -1.134,-3.281 l 0.04,-0.093 0.074,-0.175 a 3.244,3.244 0 1 0 -3.34,-0.754 c -0.108,0.231 -0.222,0.465 -0.339,0.706 a 14.022,14.022 0 0 0 -1.40000004,3.8 c -0.465,2.8 0.285,5.043 2.11100004,6.308 a 5.751,5.751 0 0 0 3.366,1.073 c 2.132,0 4.289,-1.071 6.4000004,-2.119 a 23.638,23.638 0 0 1 4.642,-1.917 18.262,18.262 0 0 1 1.8,-0.319 9.969,9.969 0 0 0 3.679,-1.028 5.088,5.088 0 0 0 2.487,-3.53 5.255,5.255 0 0 0 -0.69,-3.613 3.225,3.225 0 0 0 0.475,-1.688 z m -1.273,0 a 1.97,1.97 0 1 1 -1.97,-1.97 1.973,1.973 0 0 1 1.97,1.97 z m 0.447,-12.513 -3.174,9.36 a 3.283,3.283 0 0 0 -0.4,0.125 l -3.135,-6.4 -3.145,6.362 a 3.276,3.276 0 0 0 -0.419,-0.114 l -3.163,-9.333 z m -10.907,10.543 a 1.97,1.97 0 1 1 -1.97,1.97 1.972,1.972 0 0 1 1.97,-1.97 z m -8.5230004,0.019 a 1.97,1.97 0 1 1 -1.97,1.97 1.972,1.972 0 0 1 1.969,-1.97 z m 19.2170004,7.034 a 3.818,3.818 0 0 1 -1.871,2.646 8.88,8.88 0 0 1 -3.223,0.87 c -0.632,0.091 -1.285,0.185 -1.924,0.343 a 24.609,24.609 0 0 0 -4.9,2.013 c -3.1640004,1.571 -5.9000004,2.928 -8.4720004,1.143 -1.887,-1.308 -1.8,-3.728 -1.58,-5.054 a 12.775,12.775 0 0 1 1.283,-3.454 c 0.092,-0.19 0.182,-0.375 0.27,-0.559 a 3.25,3.25 0 0 0 0.838,0.21 3.963,3.963 0 0 0 2.1,4.655 l 0.245,0.126 0.259,-0.093 a 11.022,11.022 0 0 0 3.8760004,-2.4 12.11,12.11 0 0 0 1.918,-2.32 3.241,3.241 0 0 0 2.64,-5.627 l 2.038,-4.121 2.059,4.2 a 3.24,3.24 0 0 0 4.088,5 3.952,3.952 0 0 1 0.355,2.421 z"
     style="fill:#ffffff"
     id="path6"
      />
</svg>
