<?xml version="1.0" encoding="UTF-8" standalone="no"?>
<svg
   xmlns="http://www.w3.org/2000/svg"
   width="2376.4438"
   height="1439.25"
   viewBox="0 0 62.738118 38"
   preserveAspectRatio="xMinYMin meet"
   version="1.1"
   id="svg6"
   >
  <metadata
     id="metadata12">
  </metadata>
  <defs
     id="defs10" />
  <path
     d="m 33.63139,13.782 a 2.591,2.591 0 0 1 3.891,-2.243 c 2.348,-0.862 4.963,-1.313 7.682,-1.313 7.281,0 13.526,3.252 15.637,7.932 -0.018,1.108 -1.592,1.624 -2.22,0.944 -1.731,-3.759 -7.199,-6.465 -13.417,-6.465 -2.26,0 -4.429,0.345 -6.393,1.004 a 2.592,2.592 0 1 1 -5.18,0.141 z m 29.113,9.644 a 2.592,2.592 0 1 0 -4.626,1.605 c -0.828,1.273 -2.115,2.426 -3.764,3.352 -2.547,1.428 -5.796,2.215 -9.151,2.215 -2.905,0 -5.694,-0.575 -8.068,-1.665 -1.604,-0.737 -2.938,-1.667 -3.935,-2.738 -0.661,-0.385 -2.189,0.843 -1.635,1.779 2.994,3.114 8.072,5.036 13.638,5.036 3.761,0 7.43,-0.896 10.331,-2.524 2.126,-1.193 3.776,-2.738 4.814,-4.476 a 2.594,2.594 0 0 0 2.396,-2.584 z"
     id="path2"
     style="fill:#89d96d" />
  <path
     d="m 12.80739,28.29 c -2.364,-3.065 -3.7029998,-7.39 -3.7029998,-12.06 0,-4.25 1.1209998,-8.261 3.1559998,-11.295 2.133,-3.183 5.019,-4.935 8.125,-4.935 2.831,0 5.53,1.492 7.601,4.2 1.955,2.558 3.227,6.047 3.58,9.826 a 24.983,24.983 0 0 0 -2.591,-1.243 c -1.003,-6.007 -4.539,-10.372 -8.59,-10.372 -2.277,0 -4.452,1.373 -6.124,3.867 -1.771,2.641 -2.747,6.176 -2.747,9.953 0,4.152 1.227,8.094 3.31,10.724 a 2.592,2.592 0 1 1 -2.017,1.335 z m 18.443,-12.781 c -4.232,-2.444 -8.954,-3.414 -12.862,-2.732 a 2.592,2.592 0 1 0 0.733,2.317 c 3.289,-0.486 7.282,0.4 10.923,2.503 4.447,2.567 7.592,6.552 8.207,10.247 0.767,0.32 1.604,0.594 2.51,0.807 -0.236,-4.8 -3.919,-9.915 -9.511,-13.142 z m 0.639,19.98 c -2.334,0.297 -4.982,-0.074 -7.586,-1.048 -0.748,0.578 -1.54,1.12 -2.372,1.621 2.766,1.27 5.664,1.937 8.352,1.937 0.651,0 1.291,-0.039 1.912,-0.118 3.219,-0.409 5.77,-1.861 7.237,-4.105 a 22.276,22.276 0 0 1 -2.45,-0.745 c -1.129,1.317 -2.898,2.179 -5.093,2.458 z m -2.581,-9.472 a 2.592,2.592 0 1 0 -2.151,-1.105 c -0.493,1.186 -1.216,2.373 -2.138,3.504 -1.426,1.748 -3.301,3.32 -5.422,4.545 -2.961,1.711 -6.15,2.629 -9.083,2.628 -0.306,0 -0.6099998,-0.01 -0.9099998,-0.03 -2.996,-0.201 -5.272,-1.398 -6.411,-3.369 -2.018,-3.496 -0.006,-8.754 4.686,-12.621 a 24.79,24.79 0 0 1 -0.21,-2.594 l -0.133,-0.185 c -3.056,2.197 -5.406,5.033 -6.61900001,7.983 -1.285,3.126 -1.218,6.188 0.18800001,8.622 1.553,2.689 4.514,4.313 8.337,4.57 0.351,0.023 0.7059998,0.035 1.0639998,0.035 3.355,0 6.97,-1.03 10.296,-2.951 3.965,-2.288 7.009,-5.556 8.506,-9.032 z"
     id="path4"
     style="fill:#999999" />
</svg>
