<?xml version="1.0" encoding="UTF-8" standalone="no"?>
<svg
   
   
   
   
   xmlns="http://www.w3.org/2000/svg"
   
   
   viewBox="0 0 44.000793 32.98145"
   width="132.00238"
   height="98.944351"
   version="1.1"
   id="svg4"
   
   >
  <metadata
     id="metadata10">
    
  </metadata>
  <defs
     id="defs8" />
  
  <path
     d="m 37.867131,18.956542 c -1.538,0.008 -2.87,0.377 -3.986,0.928 -0.408,-0.815 -0.822,-1.532 -0.891,-2.065 -0.081,-0.622 -0.175,-0.994 -0.077,-1.735 0.098,-0.741 0.527,-1.791 0.521,-1.87 -0.006,-0.079 -0.096,-0.456 -0.983,-0.463 -0.887,-0.006 -1.646,0.171 -1.735,0.405 -0.089,0.234 -0.26,0.761 -0.366,1.311 -0.155,0.804 -1.771,3.673 -2.688,5.173 -0.3,-0.586 -0.555,-1.102 -0.608,-1.51 -0.081,-0.622 -0.175,-0.994 -0.077,-1.735 0.098,-0.741 0.527,-1.791 0.521,-1.87 -0.006,-0.079 -0.096,-0.456 -0.983,-0.463 -0.887,-0.006 -1.646,0.171 -1.735,0.405 -0.089,0.234 -0.185,0.781 -0.366,1.311 -0.182,0.529 -2.329,5.314 -2.892,6.555 -0.287,0.632 -0.536,1.14 -0.712,1.486 -10e-4,-10e-4 -10e-4,-0.002 -10e-4,-0.002 0,0 -0.011,0.023 -0.029,0.062 -0.151,0.295 -0.24,0.458 -0.24,0.458 0,0 0.001,0.002 0.003,0.006 -0.12,0.217 -0.248,0.418 -0.311,0.418 -0.044,0 -0.133,-0.577 0.019,-1.369 0.32,-1.66 1.087,-4.248 1.08,-4.338 -0.004,-0.046 0.143,-0.497 -0.501,-0.733 -0.626,-0.229 -0.849,0.153 -0.906,0.154 -0.055,10e-4 -0.096,0.135 -0.096,0.135 0,0 0.697,-2.911 -1.33,-2.911 -1.268,0 -3.024,1.387 -3.889,2.644 -0.546,0.298 -1.715,0.936 -2.954,1.617 -0.476,0.262 -0.962,0.529 -1.423,0.783 -0.031,-0.035 -0.063,-0.069 -0.095,-0.104 -2.4589998,-2.623 -7.0029998,-4.478 -6.8109998,-8.005 0.07,-1.282 0.516,-4.6580004 8.7329998,-8.7520004 6.731,-3.354 12.12,-2.431 13.051,-0.386 1.33,2.923 -2.88,8.3540004 -9.87,9.1380004 -2.663,0.299 -4.066,-0.734 -4.415,-1.118 -0.367,-0.405 -0.422,-0.423 -0.559,-0.347 -0.223,0.124 -0.082,0.481 0,0.694 0.209,0.543 1.065,1.506 2.525,1.986 1.285,0.422 4.412,0.653 8.193,-0.81 4.236,-1.638 7.543,-6.1960004 6.571,-10.0050004 -0.988,-3.87400004 -7.412,-5.148 -13.492,-2.988 -3.623,1.286 -7.5399998,3.304 -10.3569998,5.938 -3.34899997,3.1320004 -3.88299997,5.8590004 -3.66299997,6.9980004 0.782,4.048 6.36099997,6.684 8.59499997,8.637 -0.11,0.061 -0.214,0.118 -0.308,0.17 -1.12,0.554 -5.373,2.78 -6.437,5.131 -1.20699997,2.667 0.192,4.581 1.118,4.839 2.869,0.798 5.813,-0.638 7.3959998,-2.998 1.582,-2.359 1.389,-5.432 0.663,-6.834 -0.009,-0.017 -0.019,-0.034 -0.028,-0.052 0.289,-0.171 0.584,-0.345 0.876,-0.517 0.57,-0.335 1.13,-0.647 1.615,-0.911 -0.272,0.744 -0.471,1.637 -0.574,2.926 -0.122,1.514 0.499,3.471 1.311,4.241 0.358,0.339 0.788,0.347 1.06,0.347 0.945,0 1.376,-0.786 1.851,-1.716 0.582,-1.14 1.099,-2.468 1.099,-2.468 0,0 -0.648,3.586 1.118,3.586 0.644,0 1.291,-0.835 1.58,-1.26 10e-4,0.005 10e-4,0.007 10e-4,0.007 0,0 0.017,-0.028 0.05,-0.083 0.067,-0.102 0.105,-0.167 0.105,-0.167 0,0 0.001,-0.007 0.003,-0.019 0.259,-0.449 0.833,-1.473 1.693,-3.162 1.112,-2.182 2.178,-4.916 2.178,-4.916 0,0 0.099,0.668 0.424,1.774 0.191,0.65 0.597,1.369 0.918,2.059 -0.258,0.358 -0.416,0.563 -0.416,0.563 0,0 10e-4,0.004 0.004,0.011 -0.206,0.274 -0.437,0.569 -0.679,0.857 -0.878,1.045 -1.923,2.239 -2.063,2.583 -0.165,0.406 -0.126,0.704 0.193,0.945 0.233,0.175 0.647,0.203 1.08,0.174 0.789,-0.053 1.343,-0.249 1.617,-0.368 0.427,-0.151 0.924,-0.388 1.39,-0.731 0.861,-0.633 1.38,-1.538 1.33,-2.738 -0.028,-0.661 -0.238,-1.316 -0.505,-1.934 0.078,-0.112 0.156,-0.226 0.235,-0.34 1.357,-1.984 2.41,-4.164 2.41,-4.164 0,0 0.099,0.668 0.424,1.774 0.164,0.559 0.489,1.17 0.781,1.768 -1.276,1.037 -2.067,2.242 -2.342,3.032 -0.508,1.462 -0.11,2.124 0.636,2.275 0.338,0.068 0.816,-0.087 1.175,-0.239 0.447,-0.148 0.984,-0.395 1.486,-0.764 0.861,-0.633 1.689,-1.519 1.639,-2.718 -0.023,-0.546 -0.171,-1.088 -0.372,-1.608 1.082,-0.451 2.482,-0.701 4.266,-0.493 3.827,0.447 4.577,2.836 4.434,3.836 -0.144,1 -0.946,1.55 -1.215,1.716 -0.268,0.166 -0.35,0.224 -0.328,0.347 0.033,0.179 0.157,0.173 0.386,0.134 0.315,-0.053 2.009,-0.813 2.082,-2.659 0.091,-2.346 -2.154,-4.92 -6.131,-4.899 z m -29.4969998,9.944 c -1.268,1.383 -3.038,1.905 -3.798,1.465 -0.82,-0.475 -0.495,-2.511 1.06,-3.979 0.948,-0.894 2.172,-1.718 2.984,-2.225 0.185,-0.111 0.456,-0.274 0.786,-0.472 0.055,-0.031 0.086,-0.048 0.086,-0.048 l -10e-4,-0.002 c 0.064,-0.038 0.129,-0.077 0.196,-0.118 0.5669998,2.089 0.018,3.928 -1.313,5.379 z m 9.2349998,-6.277 c -0.441,1.076 -1.365,3.83 -1.928,3.682 -0.483,-0.127 -0.777,-2.22 -0.096,-4.28 0.342,-1.037 1.074,-2.276 1.504,-2.757 0.692,-0.774 1.454,-1.027 1.639,-0.713 0.235,0.4 -0.842,3.393 -1.119,4.068 z m 7.629,3.64 c -0.187,0.098 -0.359,0.159 -0.438,0.112 -0.059,-0.035 0.077,-0.164 0.077,-0.164 0,0 0.954,-1.027 1.33,-1.494 0.219,-0.272 0.472,-0.595 0.748,-0.955 0.002,0.036 0.003,0.072 0.003,0.107 -0.002,1.23 -1.19,2.06 -1.72,2.394 z m 5.877,-1.34 c -0.14,-0.099 -0.116,-0.42 0.343,-1.421 0.18,-0.393 0.592,-1.054 1.306,-1.686 0.083,0.26 0.133,0.509 0.132,0.741 -0.009,1.548 -1.113,2.126 -1.781,2.366 z"
     id="path2"
     
     style="fill:#f06292" />
</svg>
