<?xml version="1.0" encoding="UTF-8" standalone="no"?>
<svg
   
   
   
   
   xmlns="http://www.w3.org/2000/svg"
   
   
   viewBox="0 0 36 36"
   width="108"
   height="108"
   version="1.1"
   id="svg8"
   
   >
  <metadata
     id="metadata14">
    
  </metadata>
  <defs
     id="defs12" />
  
  <rect
     width="36"
     height="36"
     x="0"
     y="0"
     id="rect2"
     style="fill:#1976d2" />
  <polygon
     points="14.227,25.264 18.984,25.264 18.984,40 22.753,40 22.753,25.264 27.49,25.264 27.49,22 14.227,22 "
     id="polygon4"
     style="fill:#ffffff"
     transform="translate(-6,-6)" />
  <path
     d="m 33.194,20.084 c 0,0 -1.787,-1.192 -3.807,-1.192 -2.02,0 -2.747,0.96 -2.747,1.986 0,2.648 7.381,2.383 7.381,7.712 0,8.209 -11.254,4.568 -11.254,4.568 V 29.22 c 0,0 2.152,1.622 4.733,1.622 2.581,0 2.483,-1.688 2.483,-1.92 0,-2.449 -7.315,-2.449 -7.315,-7.878 0,-7.381 10.658,-4.469 10.658,-4.469 z"
     id="path6"
     
     style="fill:#ffffff" />
</svg>
